# This file uses centimeters as units for non-parametric coordinates.

mtllib Estantes.mtl
g default
v -0.771273 0.368153 0.865066
v 3.108837 0.368153 0.865066
v 3.108837 0.368153 -0.087292
v -0.771273 0.368153 -0.087292
v -0.771273 0.286986 0.865066
v 3.108837 0.286986 0.865066
v 2.534946 0.286986 0.232934
v 2.534946 0.258780 0.232934
v 2.443880 0.258780 0.232934
v 2.443880 0.286986 0.232934
v 2.534946 -0.173513 0.739922
v 2.534946 -0.173513 0.780418
v 2.443880 -0.173513 0.780418
v 2.443880 -0.173513 0.739922
v 2.534946 0.258780 0.739922
v 2.443880 0.258780 0.739922
v 2.534946 0.286986 0.780418
v -0.172274 0.286986 0.232934
v -0.263340 0.286986 0.232934
v -0.771273 0.286986 -0.087292
v 3.108837 0.286986 -0.087292
v 2.443880 0.286986 0.780418
v -0.263340 0.286986 0.780418
v -0.172274 0.286986 0.780418
v -0.263340 -0.173513 0.780418
v -0.172274 -0.173513 0.780418
v -0.172274 -0.173513 0.739922
v -0.263340 -0.173513 0.739922
v -0.263340 0.258780 0.739922
v -0.172274 0.258780 0.739922
v -0.263340 0.258780 0.232934
v -0.172274 0.258780 0.232934
vt 0.276291 0.729402
vt 0.276451 0.501782
vt 0.504071 0.501942
vt 0.503912 0.729562
vt 0.048670 0.729243
vt 0.048830 0.501622
vt 0.548730 0.016004
vt 0.549685 0.016017
vt 0.549477 0.031763
vt 0.548522 0.031750
vt 0.942476 0.502249
vt 0.959313 0.502261
vt 0.959153 0.729881
vt 0.942316 0.729870
vt 0.547208 0.031733
vt 0.547417 0.015987
vt 0.532835 0.015794
vt 0.532627 0.031540
vt 0.939057 0.535913
vt 0.808205 0.535821
vt 0.808201 0.541164
vt 0.808093 0.694636
vt 0.808090 0.699978
vt 0.731532 0.729722
vt 0.731692 0.502101
vt 0.959313 0.502261
vt 0.518193 0.015601
vt 0.517985 0.031346
vt 0.532479 0.031538
vt 0.516881 0.031332
vt 0.517089 0.015586
vt 0.532687 0.015792
vt 0.048990 0.274002
vt 0.276610 0.274161
vt 0.532270 0.047284
vt 0.531315 0.047271
vt 0.531508 0.032690
vt 0.516866 0.032497
vt 0.517105 0.014421
vt 0.531747 0.014615
vt 0.531940 0.000033
vt 0.532895 0.000046
vt 0.938942 0.700070
vt 0.938946 0.694728
vt 0.939054 0.541255
vt 0.959153 0.729881
vt 0.532479 0.031538
vt 0.516881 0.031332
vt 0.517089 0.015586
vt 0.532687 0.015792
vt 0.518193 0.015601
vt 0.517985 0.031346
vt 0.532627 0.031540
vt 0.532835 0.015794
vt 0.547208 0.031733
vt 0.547417 0.015987
vt 0.578909 0.016403
vt 0.580073 0.016419
vt 0.579865 0.032165
vt 0.578700 0.032149
vt 0.548730 0.016004
vt 0.549685 0.016017
vt 0.549477 0.031763
vt 0.548522 0.031750
vt 0.048511 0.956863
vt 0.276131 0.957023
vt 0.517105 0.014421
vt 0.531747 0.014615
vt 0.531940 0.000033
vt 0.532895 0.000046
vt 0.532270 0.047284
vt 0.531315 0.047271
vt 0.531508 0.032690
vt 0.516866 0.032497
vt 0.516881 0.031332
vt 0.517089 0.015586
vt 0.532627 0.031540
vt 0.532835 0.015794
vt 0.532687 0.015792
vt 0.532479 0.031538
vt 0.532479 0.031538
vt 0.532687 0.015792
vt 0.517089 0.015586
vt 0.516881 0.031332
vt 0.532835 0.015794
vt 0.532627 0.031540
vn 0.000000 1.000000 0.000000
vn 0.000000 1.000000 0.000000
vn 0.000000 1.000000 0.000000
vn 0.000000 1.000000 0.000000
vn 0.000000 0.000000 1.000000
vn 0.000000 0.000000 1.000000
vn 0.000000 0.000000 1.000000
vn 0.000000 0.000000 1.000000
vn 0.000000 0.000000 -1.000000
vn 0.000000 0.000000 -1.000000
vn 0.000000 0.000000 -1.000000
vn 0.000000 0.000000 -1.000000
vn 0.000000 -1.000000 0.000000
vn 0.000000 -1.000000 0.000000
vn 0.000000 -1.000000 0.000000
vn 0.000000 -1.000000 0.000000
vn 0.000000 -1.000000 0.000000
vn 0.000000 -1.000000 0.000000
vn 0.000000 -1.000000 0.000000
vn 0.000000 -1.000000 0.000000
vn 0.000000 -1.000000 0.000000
vn 0.000000 -1.000000 0.000000
vn 0.000000 -1.000000 0.000000
vn 0.000000 -1.000000 0.000000
vn 0.000000 -1.000000 0.000000
vn 0.000000 -1.000000 0.000000
vn 0.000000 -1.000000 0.000000
vn 0.000000 -1.000000 0.000000
vn 0.000000 -1.000000 0.000000
vn 0.000000 -1.000000 0.000000
vn 0.000000 -1.000000 0.000000
vn 0.000000 -1.000000 0.000000
vn 0.000000 0.000000 -1.000000
vn 0.000000 0.000000 -1.000000
vn 0.000000 0.000000 -1.000000
vn 0.000000 0.000000 -1.000000
vn 0.000000 0.000000 1.000000
vn 0.000000 0.000000 1.000000
vn 0.000000 0.000000 1.000000
vn 0.000000 0.000000 1.000000
vn 1.000000 0.000000 0.000000
vn 1.000000 0.000000 0.000000
vn 1.000000 0.000000 0.000000
vn 1.000000 0.000000 0.000000
vn -1.000000 0.000004 0.000000
vn -1.000000 0.000004 0.000000
vn -1.000000 0.000004 0.000000
vn -1.000000 0.000004 0.000000
vn -1.000000 0.000004 0.000000
vn -1.000000 0.000004 0.000000
vn 1.000000 0.000000 0.000000
vn 1.000000 0.000000 0.000000
vn 1.000000 0.000000 0.000000
vn 1.000000 0.000000 0.000000
vn 1.000000 0.000000 0.000000
vn 1.000000 0.000000 0.000000
vn 0.000000 0.000000 -1.000000
vn 0.000000 0.000000 -1.000000
vn 0.000000 0.000000 -1.000000
vn 0.000000 0.000000 -1.000000
vn 0.000000 0.000000 1.000000
vn 0.000000 0.000000 1.000000
vn 0.000000 0.000000 1.000000
vn 0.000000 0.000000 1.000000
vn 0.000000 0.000000 -1.000000
vn 0.000000 0.000000 -1.000000
vn 0.000000 0.000000 -1.000000
vn 0.000000 0.000000 -1.000000
vn 0.000000 -1.000000 0.000000
vn 0.000000 -1.000000 0.000000
vn 0.000000 -1.000000 0.000000
vn 0.000000 -1.000000 0.000000
vn 0.000000 -1.000000 0.000000
vn 0.000000 -1.000000 0.000000
vn 0.000000 -1.000000 0.000000
vn 0.000000 -1.000000 0.000000
vn 0.000000 0.000000 -1.000000
vn 0.000000 0.000000 -1.000000
vn 0.000000 0.000000 -1.000000
vn 0.000000 0.000000 -1.000000
vn -1.000000 0.000000 0.000000
vn -1.000000 0.000000 0.000000
vn -1.000000 0.000000 0.000000
vn -1.000000 0.000000 0.000000
vn 1.000000 0.000000 0.000000
vn 1.000000 0.000000 0.000000
vn 1.000000 0.000000 0.000000
vn 1.000000 0.000000 0.000000
vn 1.000000 0.000000 0.000000
vn 1.000000 0.000000 0.000000
vn -1.000000 0.000000 0.000000
vn -1.000000 0.000000 0.000000
vn -1.000000 0.000000 0.000000
vn -1.000000 0.000000 0.000000
vn -1.000000 0.000000 0.000000
vn -1.000000 0.000000 0.000000
s off
g pCube49
usemtl lambert6SG
f 1/1/1 2/2/2 3/3/3 4/4/4
f 5/5/5 6/6/6 2/2/7 1/1/8
f 7/7/9 8/8/10 9/9/11 10/10/12
f 11/11/13 12/12/14 13/13/15 14/14/16
f 9/15/17 8/16/18 15/17/19 16/86/20
f 20/24/21 21/25/22 6/26/23 5/46/24 17/19/25 7/20/26 10/21/27 22/45/28 18/22/29 19/23/30 23/43/31 24/44/32
f 11/27/33 14/28/34 16/18/35 15/85/36
f 22/29/37 13/30/38 12/83/39 17/82/40
f 6/6/41 21/33/42 3/34/43 2/2/44
f 10/35/45 9/36/46 16/37/47 14/38/48 13/84/49 22/81/50
f 17/32/51 12/31/52 11/39/53 15/40/54 8/41/55 7/42/56
f 4/4/57 3/3/58 21/25/59 20/24/60
f 23/80/61 25/75/62 26/49/63 24/50/64
f 27/51/65 28/52/66 29/53/67 30/78/68
f 31/55/69 32/56/70 30/54/71 29/77/72
f 27/57/73 26/58/74 25/59/75 28/60/76
f 18/61/77 32/62/78 31/63/79 19/64/80
f 20/65/81 5/5/82 1/1/83 4/66/84
f 24/79/85 26/76/86 27/67/87 30/68/88 32/69/89 18/70/90
f 19/71/91 31/72/92 29/73/93 28/74/94 25/48/95 23/47/96
g default
v -0.771273 -0.716948 0.865066
v 3.108837 -0.716948 0.865066
v 3.108837 -0.716948 -0.087292
v -0.771273 -0.716948 -0.087292
v -0.771273 -0.798115 0.865066
v 3.108837 -0.798115 0.865066
v 2.534946 -0.798115 0.232934
v 2.534946 -0.826322 0.232934
v 2.443880 -0.826322 0.232934
v 2.443880 -0.798115 0.232934
v 2.534946 -1.258615 0.739922
v 2.534946 -1.258615 0.780418
v 2.443880 -1.258615 0.780418
v 2.443880 -1.258615 0.739922
v 2.534946 -0.826322 0.739922
v 2.443880 -0.826322 0.739922
v 2.534946 -0.798115 0.780418
v -0.172274 -0.798115 0.232934
v -0.263340 -0.798115 0.232934
v -0.771273 -0.798115 -0.087292
v 3.108837 -0.798115 -0.087292
v 2.443880 -0.798115 0.780418
v -0.263340 -0.798115 0.780418
v -0.172274 -0.798115 0.780418
v -0.263340 -1.258615 0.780418
v -0.172274 -1.258615 0.780418
v -0.172274 -1.258615 0.739922
v -0.263340 -1.258615 0.739922
v -0.263340 -0.826322 0.739922
v -0.172274 -0.826322 0.739922
v -0.263340 -0.826322 0.232934
v -0.172274 -0.826322 0.232934
vt 0.276291 0.729402
vt 0.276451 0.501782
vt 0.504071 0.501942
vt 0.503912 0.729562
vt 0.048670 0.729243
vt 0.048830 0.501622
vt 0.548730 0.016004
vt 0.549685 0.016017
vt 0.549477 0.031763
vt 0.548522 0.031750
vt 0.942476 0.502249
vt 0.959313 0.502261
vt 0.959153 0.729881
vt 0.942316 0.729870
vt 0.547208 0.031733
vt 0.547417 0.015987
vt 0.532835 0.015794
vt 0.532627 0.031540
vt 0.939057 0.535913
vt 0.808205 0.535821
vt 0.808201 0.541164
vt 0.808093 0.694636
vt 0.808090 0.699978
vt 0.731532 0.729722
vt 0.731692 0.502101
vt 0.959313 0.502261
vt 0.518193 0.015601
vt 0.517985 0.031346
vt 0.532479 0.031538
vt 0.516881 0.031332
vt 0.517089 0.015586
vt 0.532687 0.015792
vt 0.048990 0.274002
vt 0.276610 0.274161
vt 0.532270 0.047284
vt 0.531315 0.047271
vt 0.531508 0.032690
vt 0.516866 0.032497
vt 0.517105 0.014421
vt 0.531747 0.014615
vt 0.531940 0.000033
vt 0.532895 0.000046
vt 0.938942 0.700070
vt 0.938946 0.694728
vt 0.939054 0.541255
vt 0.959153 0.729881
vt 0.532479 0.031538
vt 0.516881 0.031332
vt 0.517089 0.015586
vt 0.532687 0.015792
vt 0.518193 0.015601
vt 0.517985 0.031346
vt 0.532627 0.031540
vt 0.532835 0.015794
vt 0.547208 0.031733
vt 0.547417 0.015987
vt 0.578909 0.016403
vt 0.580073 0.016419
vt 0.579865 0.032165
vt 0.578700 0.032149
vt 0.548730 0.016004
vt 0.549685 0.016017
vt 0.549477 0.031763
vt 0.548522 0.031750
vt 0.048511 0.956863
vt 0.276131 0.957023
vt 0.517105 0.014421
vt 0.531747 0.014615
vt 0.531940 0.000033
vt 0.532895 0.000046
vt 0.532270 0.047284
vt 0.531315 0.047271
vt 0.531508 0.032690
vt 0.516866 0.032497
vt 0.516881 0.031332
vt 0.517089 0.015586
vt 0.532627 0.031540
vt 0.532835 0.015794
vt 0.532687 0.015792
vt 0.532479 0.031538
vt 0.532479 0.031538
vt 0.532687 0.015792
vt 0.517089 0.015586
vt 0.516881 0.031332
vt 0.532835 0.015794
vt 0.532627 0.031540
vn 0.000000 1.000000 0.000000
vn 0.000000 1.000000 0.000000
vn 0.000000 1.000000 0.000000
vn 0.000000 1.000000 0.000000
vn 0.000000 0.000000 1.000000
vn 0.000000 0.000000 1.000000
vn 0.000000 0.000000 1.000000
vn 0.000000 0.000000 1.000000
vn 0.000000 0.000000 -1.000000
vn 0.000000 0.000000 -1.000000
vn 0.000000 0.000000 -1.000000
vn 0.000000 0.000000 -1.000000
vn 0.000000 -1.000000 0.000000
vn 0.000000 -1.000000 0.000000
vn 0.000000 -1.000000 0.000000
vn 0.000000 -1.000000 0.000000
vn 0.000000 -1.000000 0.000000
vn 0.000000 -1.000000 0.000000
vn 0.000000 -1.000000 0.000000
vn 0.000000 -1.000000 0.000000
vn 0.000000 -1.000000 0.000000
vn 0.000000 -1.000000 0.000000
vn 0.000000 -1.000000 0.000000
vn 0.000000 -1.000000 0.000000
vn 0.000000 -1.000000 0.000000
vn 0.000000 -1.000000 0.000000
vn 0.000000 -1.000000 0.000000
vn 0.000000 -1.000000 0.000000
vn 0.000000 -1.000000 0.000000
vn 0.000000 -1.000000 0.000000
vn 0.000000 -1.000000 0.000000
vn 0.000000 -1.000000 0.000000
vn 0.000000 0.000000 -1.000000
vn 0.000000 0.000000 -1.000000
vn 0.000000 0.000000 -1.000000
vn 0.000000 0.000000 -1.000000
vn 0.000000 0.000000 1.000000
vn 0.000000 0.000000 1.000000
vn 0.000000 0.000000 1.000000
vn 0.000000 0.000000 1.000000
vn 1.000000 0.000000 0.000000
vn 1.000000 0.000000 0.000000
vn 1.000000 0.000000 0.000000
vn 1.000000 0.000000 0.000000
vn -1.000000 0.000004 0.000000
vn -1.000000 0.000004 0.000000
vn -1.000000 0.000004 0.000000
vn -1.000000 0.000004 0.000000
vn -1.000000 0.000004 0.000000
vn -1.000000 0.000004 0.000000
vn 1.000000 0.000000 0.000000
vn 1.000000 0.000000 0.000000
vn 1.000000 0.000000 0.000000
vn 1.000000 0.000000 0.000000
vn 1.000000 0.000000 0.000000
vn 1.000000 0.000000 0.000000
vn 0.000000 0.000000 -1.000000
vn 0.000000 0.000000 -1.000000
vn 0.000000 0.000000 -1.000000
vn 0.000000 0.000000 -1.000000
vn 0.000000 0.000000 1.000000
vn 0.000000 0.000000 1.000000
vn 0.000000 0.000000 1.000000
vn 0.000000 0.000000 1.000000
vn 0.000000 0.000000 -1.000000
vn 0.000000 0.000000 -1.000000
vn 0.000000 0.000000 -1.000000
vn 0.000000 0.000000 -1.000000
vn 0.000000 -1.000000 0.000000
vn 0.000000 -1.000000 0.000000
vn 0.000000 -1.000000 0.000000
vn 0.000000 -1.000000 0.000000
vn 0.000000 -1.000000 0.000000
vn 0.000000 -1.000000 0.000000
vn 0.000000 -1.000000 0.000000
vn 0.000000 -1.000000 0.000000
vn 0.000000 0.000000 -1.000000
vn 0.000000 0.000000 -1.000000
vn 0.000000 0.000000 -1.000000
vn 0.000000 0.000000 -1.000000
vn -1.000000 0.000000 0.000000
vn -1.000000 0.000000 0.000000
vn -1.000000 0.000000 0.000000
vn -1.000000 0.000000 0.000000
vn 1.000000 0.000000 0.000000
vn 1.000000 0.000000 0.000000
vn 1.000000 0.000000 0.000000
vn 1.000000 0.000000 0.000000
vn 1.000000 0.000000 0.000000
vn 1.000000 0.000000 0.000000
vn -1.000000 0.000000 0.000000
vn -1.000000 0.000000 0.000000
vn -1.000000 0.000000 0.000000
vn -1.000000 0.000000 0.000000
vn -1.000000 0.000000 0.000000
vn -1.000000 0.000000 0.000000
s off
g pCube48
usemtl lambert6SG
f 33/87/97 34/88/98 35/89/99 36/90/100
f 37/91/101 38/92/102 34/88/103 33/87/104
f 39/93/105 40/94/106 41/95/107 42/96/108
f 43/97/109 44/98/110 45/99/111 46/100/112
f 41/101/113 40/102/114 47/103/115 48/172/116
f 52/110/117 53/111/118 38/112/119 37/132/120 49/105/121 39/106/122 42/107/123 54/131/124 50/108/125 51/109/126 55/129/127 56/130/128
f 43/113/129 46/114/130 48/104/131 47/171/132
f 54/115/133 45/116/134 44/169/135 49/168/136
f 38/92/137 53/119/138 35/120/139 34/88/140
f 42/121/141 41/122/142 48/123/143 46/124/144 45/170/145 54/167/146
f 49/118/147 44/117/148 43/125/149 47/126/150 40/127/151 39/128/152
f 36/90/153 35/89/154 53/111/155 52/110/156
f 55/166/157 57/161/158 58/135/159 56/136/160
f 59/137/161 60/138/162 61/139/163 62/164/164
f 63/141/165 64/142/166 62/140/167 61/163/168
f 59/143/169 58/144/170 57/145/171 60/146/172
f 50/147/173 64/148/174 63/149/175 51/150/176
f 52/151/177 37/91/178 33/87/179 36/152/180
f 56/165/181 58/162/182 59/153/183 62/154/184 64/155/185 50/156/186
f 51/157/187 63/158/188 61/159/189 60/160/190 57/134/191 55/133/192
g default
v -0.771273 1.323665 0.865066
v 3.108837 1.323665 0.865066
v 3.108837 1.323665 -0.087292
v -0.771273 1.323665 -0.087292
v -0.771273 1.242499 0.865066
v 3.108837 1.242499 0.865066
v 2.534946 1.242499 0.232934
v 2.534946 1.214292 0.232934
v 2.443880 1.214292 0.232934
v 2.443880 1.242499 0.232934
v 2.534946 0.781999 0.739922
v 2.534946 0.781999 0.780418
v 2.443880 0.781999 0.780418
v 2.443880 0.781999 0.739922
v 2.534946 1.214292 0.739922
v 2.443880 1.214292 0.739922
v 2.534946 1.242499 0.780418
v -0.172274 1.242499 0.232934
v -0.263340 1.242499 0.232934
v -0.771273 1.242499 -0.087292
v 3.108837 1.242499 -0.087292
v 2.443880 1.242499 0.780418
v -0.263340 1.242499 0.780418
v -0.172274 1.242499 0.780418
v -0.263340 0.781999 0.780418
v -0.172274 0.781999 0.780418
v -0.172274 0.781999 0.739922
v -0.263340 0.781999 0.739922
v -0.263340 1.214292 0.739922
v -0.172274 1.214292 0.739922
v -0.263340 1.214292 0.232934
v -0.172274 1.214292 0.232934
vt 0.276291 0.729402
vt 0.276451 0.501782
vt 0.504071 0.501942
vt 0.503912 0.729562
vt 0.048670 0.729243
vt 0.048830 0.501622
vt 0.548730 0.016004
vt 0.549685 0.016017
vt 0.549477 0.031763
vt 0.548522 0.031750
vt 0.942476 0.502249
vt 0.959313 0.502261
vt 0.959153 0.729881
vt 0.942316 0.729870
vt 0.547208 0.031733
vt 0.547417 0.015987
vt 0.532835 0.015794
vt 0.532627 0.031540
vt 0.939057 0.535913
vt 0.808205 0.535821
vt 0.808201 0.541164
vt 0.808093 0.694636
vt 0.808090 0.699978
vt 0.731532 0.729722
vt 0.731692 0.502101
vt 0.959313 0.502261
vt 0.518193 0.015601
vt 0.517985 0.031346
vt 0.532479 0.031538
vt 0.516881 0.031332
vt 0.517089 0.015586
vt 0.532687 0.015792
vt 0.048990 0.274002
vt 0.276610 0.274161
vt 0.532270 0.047284
vt 0.531315 0.047271
vt 0.531508 0.032690
vt 0.516866 0.032497
vt 0.517105 0.014421
vt 0.531747 0.014615
vt 0.531940 0.000033
vt 0.532895 0.000046
vt 0.938942 0.700070
vt 0.938946 0.694728
vt 0.939054 0.541255
vt 0.959153 0.729881
vt 0.532479 0.031538
vt 0.516881 0.031332
vt 0.517089 0.015586
vt 0.532687 0.015792
vt 0.518193 0.015601
vt 0.517985 0.031346
vt 0.532627 0.031540
vt 0.532835 0.015794
vt 0.547208 0.031733
vt 0.547417 0.015987
vt 0.578909 0.016403
vt 0.580073 0.016419
vt 0.579865 0.032165
vt 0.578700 0.032149
vt 0.548730 0.016004
vt 0.549685 0.016017
vt 0.549477 0.031763
vt 0.548522 0.031750
vt 0.048511 0.956863
vt 0.276131 0.957023
vt 0.517105 0.014421
vt 0.531747 0.014615
vt 0.531940 0.000033
vt 0.532895 0.000046
vt 0.532270 0.047284
vt 0.531315 0.047271
vt 0.531508 0.032690
vt 0.516866 0.032497
vt 0.516881 0.031332
vt 0.517089 0.015586
vt 0.532627 0.031540
vt 0.532835 0.015794
vt 0.532687 0.015792
vt 0.532479 0.031538
vt 0.532479 0.031538
vt 0.532687 0.015792
vt 0.517089 0.015586
vt 0.516881 0.031332
vt 0.532835 0.015794
vt 0.532627 0.031540
vn 0.000000 1.000000 0.000000
vn 0.000000 1.000000 0.000000
vn 0.000000 1.000000 0.000000
vn 0.000000 1.000000 0.000000
vn 0.000000 0.000000 1.000000
vn 0.000000 0.000000 1.000000
vn 0.000000 0.000000 1.000000
vn 0.000000 0.000000 1.000000
vn 0.000000 0.000000 -1.000000
vn 0.000000 0.000000 -1.000000
vn 0.000000 0.000000 -1.000000
vn 0.000000 0.000000 -1.000000
vn 0.000000 -1.000000 0.000000
vn 0.000000 -1.000000 0.000000
vn 0.000000 -1.000000 0.000000
vn 0.000000 -1.000000 0.000000
vn 0.000000 -1.000000 0.000000
vn 0.000000 -1.000000 0.000000
vn 0.000000 -1.000000 0.000000
vn 0.000000 -1.000000 0.000000
vn 0.000000 -1.000000 0.000000
vn 0.000000 -1.000000 0.000000
vn 0.000000 -1.000000 0.000000
vn 0.000000 -1.000000 0.000000
vn 0.000000 -1.000000 0.000000
vn 0.000000 -1.000000 0.000000
vn 0.000000 -1.000000 0.000000
vn 0.000000 -1.000000 0.000000
vn 0.000000 -1.000000 0.000000
vn 0.000000 -1.000000 0.000000
vn 0.000000 -1.000000 0.000000
vn 0.000000 -1.000000 0.000000
vn 0.000000 0.000000 -1.000000
vn 0.000000 0.000000 -1.000000
vn 0.000000 0.000000 -1.000000
vn 0.000000 0.000000 -1.000000
vn 0.000000 0.000000 1.000000
vn 0.000000 0.000000 1.000000
vn 0.000000 0.000000 1.000000
vn 0.000000 0.000000 1.000000
vn 1.000000 0.000000 0.000000
vn 1.000000 0.000000 0.000000
vn 1.000000 0.000000 0.000000
vn 1.000000 0.000000 0.000000
vn -1.000000 0.000004 0.000000
vn -1.000000 0.000004 0.000000
vn -1.000000 0.000004 0.000000
vn -1.000000 0.000004 0.000000
vn -1.000000 0.000004 0.000000
vn -1.000000 0.000004 0.000000
vn 1.000000 0.000000 0.000000
vn 1.000000 0.000000 0.000000
vn 1.000000 0.000000 0.000000
vn 1.000000 0.000000 0.000000
vn 1.000000 0.000000 0.000000
vn 1.000000 0.000000 0.000000
vn 0.000000 0.000000 -1.000000
vn 0.000000 0.000000 -1.000000
vn 0.000000 0.000000 -1.000000
vn 0.000000 0.000000 -1.000000
vn 0.000000 0.000000 1.000000
vn 0.000000 0.000000 1.000000
vn 0.000000 0.000000 1.000000
vn 0.000000 0.000000 1.000000
vn 0.000000 0.000000 -1.000000
vn 0.000000 0.000000 -1.000000
vn 0.000000 0.000000 -1.000000
vn 0.000000 0.000000 -1.000000
vn 0.000000 -1.000000 0.000000
vn 0.000000 -1.000000 0.000000
vn 0.000000 -1.000000 0.000000
vn 0.000000 -1.000000 0.000000
vn 0.000000 -1.000000 0.000000
vn 0.000000 -1.000000 0.000000
vn 0.000000 -1.000000 0.000000
vn 0.000000 -1.000000 0.000000
vn 0.000000 0.000000 -1.000000
vn 0.000000 0.000000 -1.000000
vn 0.000000 0.000000 -1.000000
vn 0.000000 0.000000 -1.000000
vn -1.000000 0.000000 0.000000
vn -1.000000 0.000000 0.000000
vn -1.000000 0.000000 0.000000
vn -1.000000 0.000000 0.000000
vn 1.000000 0.000000 0.000000
vn 1.000000 0.000000 0.000000
vn 1.000000 0.000000 0.000000
vn 1.000000 0.000000 0.000000
vn 1.000000 0.000000 0.000000
vn 1.000000 0.000000 0.000000
vn -1.000000 0.000000 0.000000
vn -1.000000 0.000000 0.000000
vn -1.000000 0.000000 0.000000
vn -1.000000 0.000000 0.000000
vn -1.000000 0.000000 0.000000
vn -1.000000 0.000000 0.000000
s off
g pCube50
usemtl lambert6SG
f 65/173/193 66/174/194 67/175/195 68/176/196
f 69/177/197 70/178/198 66/174/199 65/173/200
f 71/179/201 72/180/202 73/181/203 74/182/204
f 75/183/205 76/184/206 77/185/207 78/186/208
f 73/187/209 72/188/210 79/189/211 80/258/212
f 84/196/213 85/197/214 70/198/215 69/218/216 81/191/217 71/192/218 74/193/219 86/217/220 82/194/221 83/195/222 87/215/223 88/216/224
f 75/199/225 78/200/226 80/190/227 79/257/228
f 86/201/229 77/202/230 76/255/231 81/254/232
f 70/178/233 85/205/234 67/206/235 66/174/236
f 74/207/237 73/208/238 80/209/239 78/210/240 77/256/241 86/253/242
f 81/204/243 76/203/244 75/211/245 79/212/246 72/213/247 71/214/248
f 68/176/249 67/175/250 85/197/251 84/196/252
f 87/252/253 89/247/254 90/221/255 88/222/256
f 91/223/257 92/224/258 93/225/259 94/250/260
f 95/227/261 96/228/262 94/226/263 93/249/264
f 91/229/265 90/230/266 89/231/267 92/232/268
f 82/233/269 96/234/270 95/235/271 83/236/272
f 84/237/273 69/177/274 65/173/275 68/238/276
f 88/251/277 90/248/278 91/239/279 94/240/280 96/241/281 82/242/282
f 83/243/283 95/244/284 93/245/285 92/246/286 89/220/287 87/219/288
