# This file uses centimeters as units for non-parametric coordinates.

mtllib TV.mtl
g default
v -0.306387 1.422422 -0.508292
v 0.008870 1.422422 -0.508292
v 0.008870 1.422422 0.508292
v -0.306387 1.422422 0.508292
v -0.030815 2.814649 -0.869420
v 0.030815 2.814649 -0.869420
v 0.030815 1.573516 -0.869420
v -0.030815 1.573516 -0.869420
v -0.030815 1.595040 -0.508292
v -0.030815 1.595040 0.508292
v -0.030815 1.573516 -0.508292
v 0.005961 1.573516 -0.508292
v -0.030815 1.708411 -0.680432
v -0.050618 1.708411 -0.680432
v -0.050618 2.679754 -0.680432
v -0.030815 2.679754 -0.680432
v 0.005961 1.573516 0.508292
v -0.030815 1.708411 0.680432
v -0.050618 1.708411 0.680432
v -0.050618 2.679754 0.680432
v 0.030815 1.573516 0.869420
v 0.030815 2.814649 0.869420
v -0.030815 2.679754 0.680432
v -0.030815 2.814649 0.869420
v -0.030815 1.573516 0.508292
v -0.030815 1.573516 0.869420
vt 0.375000 0.312500
vt 0.458333 0.312500
vt 0.458333 0.688440
vt 0.375000 0.688440
vt 0.375000 0.500000
vt 0.625000 0.500000
vt 0.625000 0.750000
vt 0.375000 0.750000
vt 0.551278 0.312500
vt 0.625000 0.312500
vt 0.625000 0.688440
vt 0.551278 0.688440
vt 0.421875 0.020934
vt 0.629217 0.140642
vt 0.603364 0.155213
vt 0.603364 0.186784
vt 0.421875 0.291566
vt 0.477642 0.750000
vt 0.375000 0.750000
vt 0.375000 0.500000
vt 0.477642 0.500000
vt 0.522863 0.688440
vt 0.522863 0.312500
vt 0.477642 1.000000
vt 0.375000 1.000000
vt 0.125000 0.000000
vt 0.375000 0.000000
vt 0.375000 0.250000
vt 0.125000 0.250000
vt 0.625000 0.000000
vt 0.875000 0.000000
vt 0.875000 0.250000
vt 0.625000 0.250000
vt 0.477642 0.250000
vt 0.375000 0.250000
vt 0.477642 0.000000
vt 0.421875 0.979066
vt 0.421875 0.708434
vt 0.603364 0.813216
vt 0.603364 0.844787
vt 0.629217 0.859358
vt 0.375000 0.000000
vt 0.625000 1.000000
vt 0.375000 1.000000
vt 0.375000 0.948079
vt 0.524181 0.948079
vt 0.524182 0.801921
vt 0.375000 0.801921
vt 0.347828 0.027172
vt 0.152172 0.027172
vt 0.125000 0.000000
vt 0.176921 0.000000
vt 0.176921 0.004335
vt 0.323079 0.004335
vt 0.323079 0.000000
vt 0.152172 0.222828
vt 0.347828 0.222828
vt 0.125000 0.250000
vn -0.000000 -1.000000 -0.000000
vn -0.000000 -1.000000 -0.000000
vn -0.000000 -1.000000 -0.000000
vn -0.000000 -1.000000 -0.000000
vn 0.000000 0.000000 -1.000000
vn 0.000000 0.000000 -1.000000
vn 0.000000 0.000000 -1.000000
vn 0.000000 0.000000 -1.000000
vn -0.530851 0.847465 0.000000
vn -0.530851 0.847465 0.000000
vn -0.530851 0.847465 0.000000
vn -0.530851 0.847465 0.000000
vn 0.000000 0.000000 -1.000000
vn 0.000000 0.000000 -1.000000
vn 0.000000 0.000000 -1.000000
vn 0.000000 0.000000 -1.000000
vn 0.000000 0.000000 -1.000000
vn 0.000000 0.000000 -1.000000
vn 0.000000 0.000000 -1.000000
vn 0.000000 0.000000 -1.000000
vn 0.000000 0.000000 -1.000000
vn 0.999815 0.019246 0.000000
vn 0.999815 0.019246 0.000000
vn 0.999815 0.019246 0.000000
vn 0.999815 0.019246 0.000000
vn 0.000000 -1.000000 0.000000
vn 0.000000 -1.000000 0.000000
vn 0.000000 -1.000000 0.000000
vn 0.000000 -1.000000 0.000000
vn -1.000000 0.000000 0.000000
vn -1.000000 0.000000 0.000000
vn -1.000000 0.000000 0.000000
vn -1.000000 0.000000 0.000000
vn 1.000000 0.000000 0.000000
vn 1.000000 0.000000 0.000000
vn 1.000000 0.000000 0.000000
vn 1.000000 0.000000 0.000000
vn 0.000000 1.000000 0.000000
vn 0.000000 1.000000 0.000000
vn 0.000000 1.000000 0.000000
vn 0.000000 1.000000 0.000000
vn 0.000000 1.000000 0.000000
vn 0.000000 1.000000 0.000000
vn 0.000000 1.000000 0.000000
vn 0.000000 1.000000 0.000000
vn 0.000000 0.000000 1.000000
vn 0.000000 0.000000 1.000000
vn 0.000000 0.000000 1.000000
vn 0.000000 0.000000 1.000000
vn 0.000000 0.000000 1.000000
vn 0.000000 0.000000 1.000000
vn 0.000000 0.000000 1.000000
vn 0.000000 0.000000 1.000000
vn 0.000000 0.000000 1.000000
vn 0.000000 0.000000 1.000000
vn 0.000000 0.000000 1.000000
vn 0.000000 0.000000 1.000000
vn 0.000000 0.000000 1.000000
vn 0.000000 -1.000000 0.000000
vn 0.000000 -1.000000 0.000000
vn 0.000000 -1.000000 0.000000
vn 0.000000 -1.000000 0.000000
vn 0.000000 -1.000000 0.000000
vn 0.000000 -1.000000 0.000000
vn 0.000000 -1.000000 0.000000
vn 0.000000 -1.000000 0.000000
vn -1.000000 -0.000000 0.000000
vn -1.000000 -0.000000 0.000000
vn -1.000000 -0.000000 0.000000
vn -1.000000 -0.000000 0.000000
vn -1.000000 -0.000000 0.000000
vn -1.000000 -0.000000 0.000000
vn -1.000000 -0.000000 0.000000
vn -1.000000 -0.000000 0.000000
vn -1.000000 -0.000000 0.000000
vn -1.000000 -0.000000 0.000000
vn -1.000000 -0.000000 0.000000
vn -1.000000 -0.000000 0.000000
s off
g pCube3
usemtl lambert2SG
f 1/1/1 2/2/2 3/3/3 4/4/4
f 5/5/5 6/6/6 7/7/7 8/8/8
f 9/9/9 1/10/10 4/11/11 10/12/12
f 1/13/13 9/14/14 11/15/15 12/16/16 2/17/17
f 13/18/18 14/19/19 15/20/20 16/21/21
f 17/22/22 3/3/23 2/2/24 12/23/25
f 18/24/26 19/25/27 14/19/28 13/18/29
usemtl lambert3SG
f 14/26/30 19/27/31 20/28/32 15/29/33
usemtl lambert2SG
f 21/30/34 7/31/35 6/32/36 22/33/37
f 16/21/38 15/20/39 20/28/40 23/34/41
f 24/35/42 22/33/43 6/6/44 5/5/45
f 23/34/46 20/28/47 19/27/48 18/36/49
f 4/37/50 3/38/51 17/39/52 25/40/53 10/41/54
f 26/42/55 21/30/56 22/33/57 24/35/58
f 8/8/59 7/7/60 21/43/61 26/44/62 25/45/63 17/46/64 12/47/65 11/48/66
f 8/51/67 11/52/68 9/53/69 10/54/70 25/55/71 26/42/72 24/35/73 5/58/74 18/49/75 13/50/76 16/56/77 23/57/78
